<svg width="47" height="56" viewBox="0 0 47 56" fill="none" xmlns="http://www.w3.org/2000/svg">
<g clip-path="url(#clip0_204_96)">
<path d="M36.7414 28.7108C37.8712 28.7108 38.9548 28.262 39.7537 27.4631C40.5526 26.6642 41.0014 25.5806 41.0014 24.4508C41.0014 23.321 40.5526 22.2375 39.7537 21.4386C38.9548 20.6397 37.8712 20.1909 36.7414 20.1909C35.6116 20.1909 34.5281 20.6397 33.7292 21.4386C32.9303 22.2375 32.4815 23.321 32.4815 24.4508C32.4815 25.5806 32.9303 26.6642 33.7292 27.4631C34.5281 28.262 35.6116 28.7108 36.7414 28.7108ZM36.7414 27.2908C35.9882 27.2908 35.2658 26.9916 34.7332 26.459C34.2006 25.9264 33.9014 25.204 33.9014 24.4508C33.9014 23.6976 34.2006 22.9752 34.7332 22.4427C35.2658 21.9101 35.9882 21.6108 36.7414 21.6108C37.4946 21.6108 38.217 21.9101 38.7496 22.4427C39.2822 22.9752 39.5814 23.6976 39.5814 24.4508C39.5814 25.204 39.2822 25.9264 38.7496 26.459C38.217 26.9916 37.4946 27.2908 36.7414 27.2908ZM26.0915 14.1559C26.0915 15.0033 25.7549 15.8159 25.1557 16.4151C24.5565 17.0143 23.7439 17.3509 22.8965 17.3509C22.0492 17.3509 21.2365 17.0143 20.6374 16.4151C20.0382 15.8159 19.7016 15.0033 19.7016 14.1559C19.7016 13.3085 20.0382 12.4959 20.6374 11.8967C21.2365 11.2975 22.0492 10.9609 22.8965 10.9609C23.7439 10.9609 24.5565 11.2975 25.1557 11.8967C25.7549 12.4959 26.0915 13.3085 26.0915 14.1559ZM17.5716 19.8359C17.5716 20.2554 17.4889 20.6709 17.3284 21.0585C17.1678 21.4462 16.9325 21.7984 16.6358 22.095C16.3391 22.3917 15.9869 22.6271 15.5993 22.7876C15.2116 22.9482 14.7962 23.0308 14.3766 23.0308C13.957 23.0308 13.5416 22.9482 13.1539 22.7876C12.7663 22.6271 12.4141 22.3917 12.1174 22.095C11.8207 21.7984 11.5854 21.4462 11.4248 21.0585C11.2643 20.6709 11.1816 20.2554 11.1816 19.8359C11.1816 18.9885 11.5183 18.1758 12.1174 17.5767C12.7166 16.9775 13.5293 16.6409 14.3766 16.6409C15.224 16.6409 16.0366 16.9775 16.6358 17.5767C17.235 18.1758 17.5716 18.9885 17.5716 19.8359ZM14.3766 32.9707C14.7962 32.9707 15.2116 32.8881 15.5993 32.7275C15.9869 32.567 16.3391 32.3316 16.6358 32.035C16.9325 31.7383 17.1678 31.3861 17.3284 30.9984C17.4889 30.6108 17.5716 30.1953 17.5716 29.7758C17.5716 29.3562 17.4889 28.9407 17.3284 28.5531C17.1678 28.1655 16.9325 27.8133 16.6358 27.5166C16.3391 27.2199 15.9869 26.9846 15.5993 26.824C15.2116 26.6634 14.7962 26.5808 14.3766 26.5808C13.5293 26.5808 12.7166 26.9174 12.1174 27.5166C11.5183 28.1158 11.1816 28.9284 11.1816 29.7758C11.1816 30.6231 11.5183 31.4358 12.1174 32.035C12.7166 32.6341 13.5293 32.9707 14.3766 32.9707ZM25.3815 36.1657C25.3815 37.0131 25.0449 37.8257 24.4457 38.4249C23.8466 39.0241 23.0339 39.3607 22.1865 39.3607C21.3392 39.3607 20.5265 39.0241 19.9274 38.4249C19.3282 37.8257 18.9916 37.0131 18.9916 36.1657C18.9916 35.3184 19.3282 34.5057 19.9274 33.9065C20.5265 33.3074 21.3392 32.9707 22.1865 32.9707C23.0339 32.9707 23.8466 33.3074 24.4457 33.9065C25.0449 34.5057 25.3815 35.3184 25.3815 36.1657Z" fill="#39B449"/>
<path d="M25.6648 45.7504C21.7007 45.4609 17.8728 44.1807 14.5321 42.0272C9.64969 39.1669 6.10144 34.4865 4.66605 29.013C4.04738 26.63 3.91045 24.1475 4.26327 21.7109C4.61609 19.2744 5.45157 16.9327 6.72077 14.823C12.0557 6.01913 24.0148 3.41629 34.5355 8.77958C40.8104 11.9817 45.5035 17.5707 46.4889 23.0221C46.8164 24.5262 46.7795 26.0869 46.3814 27.5739C45.9832 29.0609 45.2352 30.4311 44.1999 31.5704C41.1356 34.9159 37.1809 34.869 34.3069 34.8363H34.2969C32.387 34.8023 31.1942 34.8363 30.9088 35.4043C31.0082 35.8417 31.1815 36.262 31.42 36.644C32.1372 37.6526 32.4974 38.8715 32.4436 40.1079C32.3899 41.3443 31.9252 42.5274 31.1233 43.4699C30.4499 44.244 29.6072 44.8524 28.6605 45.2479C27.7138 45.6434 26.6887 45.8154 25.6648 45.7504ZM23.292 8.8307C20.4896 8.73549 17.7108 9.37309 15.2301 10.6805C12.7495 11.9879 10.6529 13.9199 9.14753 16.2856C8.07337 18.0752 7.36712 20.0611 7.07014 22.1271C6.77316 24.1931 6.89141 26.2975 7.41798 28.3172C8.66661 33.0588 11.7463 37.1109 15.9805 39.5834C20.7389 42.4063 26.8207 44.2693 28.918 41.675C30.0355 40.3005 29.6805 39.4527 28.901 37.9518C28.4989 37.4081 28.2398 36.7721 28.1475 36.1022C28.0552 35.4323 28.1326 34.75 28.3727 34.1178C29.4817 31.9311 31.9483 31.9552 34.3367 31.9879C36.9424 32.0234 39.8988 32.0589 42.1069 29.6463C42.8365 28.8231 43.3609 27.839 43.6373 26.7743C43.9137 25.7096 43.9343 24.5946 43.6972 23.5205C42.8765 18.9765 38.6762 14.0733 33.249 11.3086C30.1721 9.71171 26.7613 8.86508 23.2949 8.8378L23.292 8.8307Z" fill="#39B449"/>
</g>
<defs>
<clipPath id="clip0_204_96">
<rect width="47" height="56" fill="white"/>
</clipPath>
</defs>
</svg>
