<svg width="48" height="57" viewBox="0 0 48 57" fill="none" xmlns="http://www.w3.org/2000/svg">
<g clip-path="url(#clip0_202_65)">
<path d="M34.0981 18.315C34.0981 17.9147 33.9391 17.5308 33.6561 17.2477C33.373 16.9647 32.9891 16.8057 32.5888 16.8057C32.1885 16.8057 31.8046 16.9647 31.5216 17.2477C31.2385 17.5308 31.0795 17.9147 31.0795 18.315V20.8305H28.564C28.1637 20.8305 27.7798 20.9895 27.4968 21.2726C27.2137 21.5556 27.0547 21.9395 27.0547 22.3398C27.0547 22.7401 27.2137 23.124 27.4968 23.407C27.7798 23.6901 28.1637 23.8491 28.564 23.8491H31.0795V26.3646C31.0795 26.7649 31.2385 27.1488 31.5216 27.4319C31.8046 27.7149 32.1885 27.8739 32.5888 27.8739C32.9891 27.8739 33.373 27.7149 33.6561 27.4319C33.9391 27.1488 34.0981 26.7649 34.0981 26.3646V23.8491H36.6136C37.0139 23.8491 37.3978 23.6901 37.6809 23.407C37.9639 23.124 38.123 22.7401 38.123 22.3398C38.123 21.9395 37.9639 21.5556 37.6809 21.2726C37.3978 20.9895 37.0139 20.8305 36.6136 20.8305H34.0981V18.315Z" fill="#39B449"/>
<path fill-rule="evenodd" clip-rule="evenodd" d="M45.1653 22.9797C45.1653 16.2864 42.1829 11.2916 37.5383 9.47436C33.2418 7.78997 28.0839 9.04974 23.5319 13.31C18.9798 9.04974 13.822 7.78997 9.52548 9.47436C4.88083 11.2916 1.89844 16.2864 1.89844 22.9776C1.89844 27.2419 4.17246 31.4358 7.00393 35.0461C9.86558 38.6946 13.4638 41.9607 16.4663 44.3978L16.736 44.6191C19.1508 46.5812 20.8976 48 23.5319 48C26.1681 48 27.9109 46.5812 30.3278 44.6191L30.5974 44.3978C33.6 41.9627 37.1982 38.6946 40.0598 35.0461C42.8913 31.4358 45.1653 27.2419 45.1653 22.9797ZM24.6347 16.4776C28.8849 11.9315 33.2901 11.0521 36.4395 12.2837C39.5949 13.5193 42.1467 17.1336 42.1467 22.9797C42.1467 26.2217 40.3758 29.7494 37.6831 33.1826C35.0187 36.5836 31.6137 39.6867 28.6957 42.0553C25.8924 44.3293 24.9868 44.9793 23.5319 44.9793C22.0769 44.9793 21.1713 44.3293 18.368 42.0533C15.45 39.6867 12.045 36.5816 9.38059 33.1846C6.68597 29.7494 4.91706 26.2217 4.91706 22.9797C4.91706 17.1336 7.46879 13.5213 10.6243 12.2837C13.7737 11.0521 18.1789 11.9315 22.4291 16.4776C22.5703 16.6287 22.741 16.7492 22.9307 16.8315C23.1204 16.9139 23.325 16.9564 23.5319 16.9564C23.7387 16.9564 23.9433 16.9139 24.133 16.8315C24.3227 16.7492 24.4935 16.6287 24.6347 16.4776Z" fill="#39B449"/>
</g>
<defs>
<clipPath id="clip0_202_65">
<rect width="47.25" height="56.25" fill="white"/>
</clipPath>
</defs>
</svg>
