<svg width="47" height="56" viewBox="0 0 47 56" fill="none" xmlns="http://www.w3.org/2000/svg">
<path d="M40.0523 29.2143C39.7678 29.2139 39.4894 29.1316 39.2504 28.9771L32.6416 24.7234L26.0342 28.9801C25.7831 29.1426 25.4887 29.2252 25.1897 29.2173C24.8907 29.2093 24.6012 29.1111 24.359 28.9355C24.1169 28.7599 23.9336 28.5152 23.8331 28.2335C23.7327 27.9518 23.7198 27.6463 23.7961 27.3572L25.797 19.7508L21.2439 15.4155C21.0419 15.2234 20.8981 14.9781 20.8292 14.708C20.7603 14.4378 20.769 14.1537 20.8542 13.8882C20.9395 13.6228 21.098 13.3868 21.3113 13.2073C21.5247 13.0278 21.7844 12.9122 22.0605 12.8737L28.5449 11.9666L31.3106 6.32852C31.4315 6.0825 31.6182 5.87481 31.85 5.72854C32.0818 5.58228 32.3497 5.50317 32.6238 5.5C32.8973 5.4995 33.1659 5.57345 33.4006 5.71392C33.6353 5.85439 33.8274 6.05609 33.9562 6.2974L36.9101 11.9666L43.227 12.8751C43.5025 12.9146 43.7613 13.0308 43.9738 13.2104C44.1863 13.3901 44.344 13.6259 44.4287 13.891C44.5135 14.156 44.5219 14.4396 44.453 14.7092C44.3841 14.9788 44.2407 15.2236 44.0392 15.4155L39.4861 19.7493L41.487 27.3557C41.5446 27.5751 41.5511 27.8047 41.506 28.027C41.4608 28.2493 41.3653 28.4583 41.2267 28.6378C41.0881 28.8174 40.9102 28.9627 40.7065 29.0626C40.5029 29.1626 40.2791 29.2145 40.0523 29.2143ZM32.6416 21.4775C32.9259 21.4774 33.2043 21.5592 33.4434 21.7132L37.6482 24.421L36.3958 19.6559C36.3282 19.3995 36.3306 19.1296 36.4028 18.8743C36.475 18.6191 36.6144 18.3879 36.8064 18.2049L39.7825 15.374L35.7363 14.7916C35.5037 14.7581 35.2825 14.6698 35.0907 14.534C34.899 14.3982 34.7423 14.2187 34.6336 14.0105L32.6816 10.2651L30.8585 13.9779C30.752 14.1951 30.594 14.383 30.3981 14.5251C30.2023 14.6672 29.9747 14.7592 29.7351 14.793L25.5125 15.3844L28.4767 18.2049C28.669 18.3878 28.8087 18.6189 28.8812 18.8741C28.9536 19.1293 28.9563 19.3993 28.8888 19.6559L27.6349 24.421L31.8397 21.7132C32.0787 21.5587 32.3571 21.4779 32.6416 21.4775Z" fill="#39B449"/>
<path d="M23.4769 46.9999C18.9452 47.0005 14.5414 45.4976 10.9556 42.7268C7.36971 39.9559 4.80442 36.0738 3.66167 31.6886C2.51893 27.3034 2.86332 22.6629 4.64087 18.4945C6.41842 14.326 9.52869 10.865 13.4843 8.65389C13.7659 8.49601 14.0914 8.43441 14.4113 8.47846C14.7311 8.52251 15.0278 8.6698 15.2563 8.89794C15.4848 9.12608 15.6325 9.42258 15.677 9.74237C15.7216 10.0622 15.6604 10.3877 15.503 10.6696C13.6387 13.9971 12.9124 17.8425 13.4344 21.6208C13.9564 25.3991 15.6983 28.9035 18.395 31.6008C21.0917 34.2982 24.5956 36.0409 28.3737 36.5639C32.1519 37.0868 35.9975 36.3614 39.3255 34.498C39.6071 34.3401 39.9326 34.2785 40.2524 34.3226C40.5723 34.3666 40.869 34.5139 41.0975 34.7421C41.326 34.9702 41.4737 35.2667 41.5182 35.5865C41.5627 35.9063 41.5016 36.2319 41.3441 36.5137C39.5644 39.6899 36.9714 42.3351 33.8315 44.178C30.6915 46.0208 27.1177 46.9948 23.4769 46.9999ZM10.8935 14.3527C7.69176 17.6516 5.91628 22.0775 5.9506 26.6745C5.98492 31.2715 7.8263 35.6704 11.0769 38.9211C14.3276 42.1717 18.7265 44.0131 23.3235 44.0474C27.9205 44.0817 32.3465 42.3063 35.6453 39.1045C32.2279 39.9424 28.6523 39.8851 25.2635 38.9381C21.8748 37.9912 18.7874 36.1866 16.2994 33.6986C13.8114 31.2106 12.0068 28.1232 11.0599 24.7345C10.113 21.3457 10.0557 17.7701 10.8935 14.3527Z" fill="#39B449"/>
</svg>
