<svg width="48" height="57" viewBox="0 0 48 57" fill="none" xmlns="http://www.w3.org/2000/svg">
<g clip-path="url(#clip0_202_45)">
<path d="M40.6662 7.16626H18.444V14.1107H21.2218V9.94404H40.6662C41.4996 9.94404 42.0551 10.4996 42.0551 11.3329V26.6107C42.0551 27.444 41.4996 27.9996 40.6662 27.9996H22.6107V37.7218H15.2496L10.1107 41.7496V37.7218H5.94401C5.11068 37.7218 4.55512 37.1663 4.55512 36.3329V21.0551C4.55512 20.2218 5.11068 19.6663 5.94401 19.6663H23.9996V16.8885H5.94401C3.5829 16.8885 1.77734 18.694 1.77734 21.0551V36.3329C1.77734 38.694 3.5829 40.4996 5.94401 40.4996H7.3329V47.5829L16.0829 40.4996H25.3885V30.7774H40.6662C43.0273 30.7774 44.8329 28.9718 44.8329 26.6107V11.3329C44.8329 8.97182 43.0273 7.16626 40.6662 7.16626Z" fill="#39B449"/>
<path d="M7.61328 34.8059H10.9466L11.7799 32.5837H16.0855L16.9188 34.8059H20.2522L15.5299 22.4448H12.1966L7.61328 34.8059ZM13.8633 25.917L15.2522 30.2226H12.4744L13.8633 25.917Z" fill="#39B449"/>
<path d="M26.7773 26.6115C28.3051 26.6115 30.3885 26.1949 32.3329 25.2226C34.2773 26.1949 36.4996 26.6115 37.8885 26.6115V23.8337C37.8885 23.8337 36.4996 23.8337 34.9718 23.2782C36.6385 21.6115 37.8885 19.1115 37.8885 15.5004V14.1115H33.7218V11.3337H30.944V14.1115H26.7773V16.8893H34.9718C34.694 19.3893 33.5829 20.9171 32.3329 21.8893C31.4996 21.1949 30.6662 20.2226 30.1107 18.9726H27.194C27.7496 20.7782 28.5829 22.1671 29.694 23.2782C28.3051 23.8337 27.0551 23.8337 26.7773 23.8337V26.6115Z" fill="#39B449"/>
</g>
<defs>
<clipPath id="clip0_202_45">
<rect width="47.25" height="56.25" fill="white"/>
</clipPath>
</defs>
</svg>
