<svg width="48" height="57" viewBox="0 0 48 57" fill="none" xmlns="http://www.w3.org/2000/svg">
<path d="M43.9125 44.2431L34.8656 20.0039C34.7405 19.6697 34.5517 19.3637 34.3099 19.1034C34.0681 18.8432 33.7782 18.6338 33.4566 18.4872C33.135 18.3406 32.7881 18.2597 32.4357 18.249C32.0832 18.2384 31.7322 18.2982 31.4025 18.4252L27.1609 20.0447V16.0571C27.1609 15.364 26.8894 14.6994 26.4061 14.2093C25.9228 13.7193 25.2673 13.444 24.5838 13.444H17.765V10.6131C17.765 9.92006 17.4935 9.25541 17.0102 8.76536C16.5269 8.27531 15.8714 8 15.1879 8H5.68455C4.97256 8 4.28974 8.28678 3.78629 8.79725C3.28284 9.30772 3 10.0001 3 10.722V47.4687C3 47.8296 3.14142 48.1758 3.39314 48.431C3.64487 48.6863 3.98628 48.8297 4.34227 48.8297H25.8187C26.1747 48.8297 26.5161 48.6863 26.7678 48.431C27.0195 48.1758 27.1609 47.8296 27.1609 47.4687V30.1433L33.8723 48.1219C33.9349 48.2891 34.0293 48.4421 34.1502 48.5722C34.2711 48.7023 34.416 48.807 34.5768 48.8803C34.7376 48.9536 34.9111 48.9941 35.0873 48.9994C35.2635 49.0047 35.439 48.9748 35.6039 48.9113L43.134 45.9988C43.2988 45.9354 43.4497 45.8396 43.5781 45.7171C43.7064 45.5945 43.8097 45.4475 43.882 45.2845C43.9542 45.1214 43.9942 44.9456 43.9994 44.7669C44.0047 44.5882 43.9751 44.4102 43.9125 44.2431ZM15.0805 15.9346V46.1077H5.68455V10.722H15.0805V15.9346ZM24.4764 46.1077H17.765V16.1659H24.4764V46.1077ZM35.8992 45.7674L27.3354 22.862L32.3556 20.9294L40.9327 43.8348L35.8992 45.7674Z" fill="#39B449"/>
</svg>
