<svg width="48" height="57" viewBox="0 0 48 57" fill="none" xmlns="http://www.w3.org/2000/svg">
<path d="M44 9.36667V47.6333C44 47.9958 43.856 48.3434 43.5997 48.5997C43.3434 48.856 42.9958 49 42.6333 49H4.36667C4.0042 49 3.65659 48.856 3.40029 48.5997C3.14399 48.3434 3 47.9958 3 47.6333V9.36667C3 9.0042 3.14399 8.65659 3.40029 8.40029C3.65659 8.14399 4.0042 8 4.36667 8H42.6333C42.9958 8 43.3434 8.14399 43.5997 8.40029C43.856 8.65659 44 9.0042 44 9.36667Z" stroke="#39B449" stroke-width="2.75" stroke-linecap="round" stroke-linejoin="round"/>
<path d="M18.3212 20.3739C18.1156 20.2523 17.8828 20.1886 17.6459 20.1892C17.4091 20.1898 17.1766 20.2547 16.9716 20.3774C16.7667 20.5001 16.5965 20.6763 16.4781 20.8883C16.3597 21.1004 16.2972 21.3408 16.2969 21.5857V35.412C16.2968 35.6571 16.359 35.8978 16.4772 36.1102C16.5955 36.3225 16.7656 36.4991 16.9707 36.622C17.1757 36.745 17.4084 36.8101 17.6454 36.8108C17.8824 36.8116 18.1154 36.7479 18.3212 36.6262L30.0206 29.7142C30.2277 29.5919 30.3998 29.4152 30.5195 29.202C30.6392 28.9887 30.7023 28.7466 30.7023 28.5C30.7023 28.2535 30.6392 28.0113 30.5195 27.7981C30.3998 27.5849 30.2277 27.4082 30.0206 27.2859L18.3212 20.3739Z" stroke="#39B449" stroke-width="2.75" stroke-linecap="round" stroke-linejoin="round"/>
</svg>
