<svg width="48" height="57" viewBox="0 0 48 57" fill="none" xmlns="http://www.w3.org/2000/svg">
<g clip-path="url(#clip0_202_2)">
<path d="M12.8887 10.2222H37.8887V12.3749H12.8887V10.2222Z" fill="#39B449"/>
<path d="M39.2768 14.1114H12.6935C12.339 14.1064 11.9893 14.0296 11.6653 13.8858C11.3413 13.7419 11.0498 13.5339 10.8084 13.2743C10.567 13.0148 10.3807 12.709 10.2607 12.3754C10.1407 12.0419 10.0895 11.6875 10.1101 11.3336C10.1084 10.6294 10.3742 9.95081 10.8538 9.43512C11.3334 8.91943 11.991 8.60515 12.6935 8.55585H39.2768C39.6451 8.55585 39.9984 8.40953 40.2589 8.14906C40.5193 7.88859 40.6657 7.53532 40.6657 7.16697C40.6657 6.79861 40.5193 6.44534 40.2589 6.18487C39.9984 5.92441 39.6451 5.77808 39.2768 5.77808H12.6935C11.254 5.82849 9.89037 6.43598 8.89019 7.47244C7.89001 8.5089 7.33146 9.89329 7.33234 11.3336C7.31891 11.5603 7.31891 11.7875 7.33234 12.0142C7.31896 12.1249 7.31896 12.2368 7.33234 12.3475V44.667C7.33146 46.1073 7.89001 47.4917 8.89019 48.5282C9.89037 49.5646 11.254 50.1721 12.6935 50.2225H39.2768C39.6451 50.2225 39.9984 50.0762 40.2589 49.8157C40.5193 49.5553 40.6657 49.202 40.6657 48.8336V15.5975C40.6665 15.2197 40.5233 14.8557 40.2653 14.5796C40.0073 14.3035 39.6538 14.1361 39.2768 14.1114ZM37.8879 47.4447H12.6935C11.991 47.3955 11.3334 47.0812 10.8538 46.5655C10.3742 46.0498 10.1084 45.3712 10.1101 44.667V16.2642C10.8998 16.6998 11.7919 16.9157 12.6935 16.8892H37.8879V47.4447Z" fill="#39B449"/>
</g>
<defs>
<clipPath id="clip0_202_2">
<rect width="47.25" height="56.25" fill="white"/>
</clipPath>
</defs>
</svg>
