<svg width="47" height="56" viewBox="0 0 47 56" fill="none" xmlns="http://www.w3.org/2000/svg">
<path fill-rule="evenodd" clip-rule="evenodd" d="M20.3591 3.58078C17.9868 5.58665 16.9068 7.20137 16.7005 9.0516C16.3587 12.1151 16.6862 12.7219 21.2317 17.4371C26.1757 22.5665 27.2342 24.4051 27.2132 27.8289C27.1901 31.5506 26.327 33.2085 21.0294 39.7044C19.1078 42.0606 17.3294 44.4851 17.0779 45.0919C16.0472 47.5764 16.7673 50.729 18.8451 52.8278C20.0191 54.0136 21.0627 54.2892 22.1562 53.7023C23.9832 52.7218 32.0265 45.6925 33.7974 43.5293C35.9285 40.9255 37.7554 37.3845 38.5058 34.4033C39.1707 31.7618 39.1636 26.8323 38.4912 24.1541C37.7466 21.1887 35.6013 16.9551 33.5062 14.3174C29.9864 9.88604 23.0095 1.99246 22.6188 2.00001C22.3996 2.00378 21.3824 2.71548 20.3591 3.58078ZM12.1316 16.134C10.2958 18.5811 10.066 20.0056 11.1616 22.1472C11.8292 23.4517 19.8518 32.504 20.3405 32.504C20.7311 32.504 22.3263 30.3175 22.7427 29.2112C22.9372 28.6938 23.002 27.8354 22.8859 27.303C22.7702 26.7706 20.8363 24.0592 18.5885 21.2775C16.3407 18.4958 14.3305 15.95 14.1218 15.6198C13.5699 14.7487 13.0748 14.8766 12.1316 16.134ZM9.44936 27.9293C9.18225 28.255 8.99084 29.2454 9.00034 30.2527C9.01324 31.6377 9.23825 32.334 10.0664 33.5496C11.1731 35.1743 13.4898 37.474 15.0806 38.5268L16.0281 39.1541L17.0029 38.052C18.128 36.7801 18.2064 36.1167 17.3813 34.8582C16.5057 33.5219 10.6494 27.3616 10.2547 27.3616C10.0681 27.3616 9.7056 27.617 9.44936 27.9293ZM9.49653 39.4462C9.50298 40.1902 12.7259 43.6154 13.1627 43.3425C13.9215 42.869 13.5638 42.1851 11.7297 40.6019C9.77551 38.9159 9.49076 38.7685 9.49653 39.4462Z" fill="#39B449"/>
</svg>
